<svg width="96" height="96" viewBox="0 0 96 96" fill="none" xmlns="http://www.w3.org/2000/svg">
  <rect x="10" y="10" width="76" height="76" rx="20" fill="url(#g)"/>
  <path d="M34 42a14 14 0 0 1 28 0v14a14 14 0 0 1-28 0V42Z" fill="white" fill-opacity=".95"/>
  <path d="M36 34c-8 1-14 8-14 17m38-17c8 1 14 8 14 17M35 62l-8 8m34-8 8 8" stroke="white" stroke-width="5" stroke-linecap="round"/>
  <circle cx="43" cy="50" r="3" fill="#0F3157"/>
  <circle cx="53" cy="50" r="3" fill="#1E5A91"/>
  <path d="M42 60c4 3 8 3 12 0" stroke="#11131A" stroke-width="4" stroke-linecap="round"/>
  <defs><linearGradient id="g" x1="10" y1="10" x2="86" y2="86"><stop stop-color="#0F3157"/><stop offset="1" stop-color="#1E5A91"/></linearGradient></defs>
</svg>
