<svg width="96" height="96" viewBox="0 0 96 96" fill="none" xmlns="http://www.w3.org/2000/svg">
  <rect x="10" y="10" width="76" height="76" rx="20" fill="url(#bg)"/>
  <path d="M30 61h36c7 0 12-5 12-12s-5-12-12-12h-2c-4-9-13-14-23-11-7 2-12 8-13 15-7 1-12 5-12 11 0 5 5 9 14 9Z" fill="white"/>
  <path d="M36 50h24M42 41h18M42 59h12" stroke="#0F3157" stroke-width="5" stroke-linecap="round"/>
  <circle cx="66" cy="29" r="6" fill="#FDE047"/>
  <defs><linearGradient id="bg" x1="10" y1="10" x2="86" y2="86"><stop stop-color="#14B8A6"/><stop offset=".55" stop-color="#38BDF8"/><stop offset="1" stop-color="#2563EB"/></linearGradient></defs>
</svg>
